<svg id="Layer_1" data-name="Layer 1" xmlns="http://www.w3.org/2000/svg" viewBox="0 0 362.28 325.51"><defs><style>.cls-1,.cls-2,.cls-3,.cls-4{fill:none;}.cls-1,.cls-2,.cls-3,.cls-6{stroke:#c1272d;}.cls-1,.cls-2,.cls-3,.cls-4,.cls-5,.cls-6{stroke-miterlimit:10;}.cls-1{stroke-width:5px;}.cls-2,.cls-4,.cls-5{stroke-width:3px;}.cls-4,.cls-5{stroke:#000;}.cls-5{fill:#c1272d;}</style></defs><title>Triggerant</title><path class="cls-1" d="M25.09,162.13c0-68.71,62.77-132.76,124.16-140.93C198,14.71,230.78,46.92,230.78,92S198,191.69,149.25,218.44C87.86,252.1,25.09,230.83,25.09,162.13Z" transform="translate(92.8 42)"/><path class="cls-2" d="M211.32,98.07c0-34.68-25.93-57.94-62.76-51C105,55.19,63.29,101.18,63.29,148.29S105,213.11,148.56,191.7C185.39,173.6,211.32,132.75,211.32,98.07Z" transform="translate(92.8 42)"/><line class="cls-2" x1="241.35" y1="221.71" x2="241.35" y2="325.51"/><line class="cls-3" x1="241.35" y1="185.34" x2="241.35" y2="221.71"/><line class="cls-2" x1="241.35" y1="168.64" x2="241.35" y2="185.34"/><line class="cls-3" x1="241.35" y1="154.65" x2="241.35" y2="168.64"/><line class="cls-2" x1="241.35" y1="139.56" x2="241.35" y2="154.65"/><line class="cls-3" x1="241.35" y1="100.61" x2="241.35" y2="139.56"/><line class="cls-2" x1="241.35" x2="241.35" y2="100.61"/><line class="cls-2" x1="294.08" y1="143.48" x2="361.8" y2="120.5"/><line class="cls-3" x1="263.16" y1="153.96" x2="294.08" y2="143.48"/><line class="cls-2" x1="249.35" y1="158.65" x2="263.16" y2="153.96"/><line class="cls-3" x1="234.17" y1="163.8" x2="249.35" y2="158.65"/><line class="cls-2" x1="218.64" y1="169.07" x2="234.17" y2="163.8"/><line class="cls-3" x1="175.31" y1="183.77" x2="218.64" y2="169.07"/><line class="cls-2" x1="0.48" y1="243.08" x2="175.31" y2="183.77"/><path class="cls-4" d="M165,181.41S162.15,171,170,153.29c.56-1.25-10.64-5.07-9.66-19.39" transform="translate(92.8 42)"/><path class="cls-4" d="M181.12,122.52s2.42,9.79-4.41,25.47c-.53,1.21,9.25,4.74,8.59,17.82" transform="translate(92.8 42)"/><line class="cls-5" x1="249.8" y1="177.74" x2="276.78" y2="163"/><polyline class="cls-4" points="254.33 226.03 257.53 223.57 280.8 205.78"/><path class="cls-6" d="M172.35,142.55c5.76-7.61,3.05,8.12-1.69,4.24C169.91,146.14,166.13,145.12,172.35,142.55Z" transform="translate(92.8 42)"/><path class="cls-6" d="M174.68,167.33c-12.94,14.5-2.05-11.35-.68-12.91C184.08,164.86,180,162.57,174.68,167.33Z" transform="translate(92.8 42)"/></svg>