<?xml version="1.0" encoding="utf-8"?>
<!-- Generator: Adobe Illustrator 24.0.1, SVG Export Plug-In . SVG Version: 6.00 Build 0)  -->
<svg version="1.1" id="Layer_1" xmlns="http://www.w3.org/2000/svg" xmlns:xlink="http://www.w3.org/1999/xlink" x="0px" y="0px"
	 viewBox="0 0 256 256" style="enable-background:new 0 0 256 256;" xml:space="preserve">
<style type="text/css">
	.st0{opacity:0.75;fill:#DC46BA;}
	.st1{opacity:0.75;fill:#FBC850;}
	.st2{opacity:0.75;fill:#17B6DE;}
</style>
<path class="st0" d="M177.99,101.8c0,1.63-0.07,3.24-0.21,4.83c-1.66,19.27-13.22,35.51-29.25,43.06
	c-1.27-15.68-9.07-29.39-20.54-38.07c-11.38,8.63-19.16,22.2-20.51,37.74c-15.78-7.7-27.07-23.91-28.62-43.05
	c-0.12-1.48-0.18-2.99-0.18-4.51c0-28.94,22.23-52.39,49.65-52.39S177.99,72.87,177.99,101.8z"/>
<path class="st1" d="M148.71,154.2c0,17.54-8.17,33.07-20.72,42.58c-8.14,6.18-18.14,9.81-28.93,9.81
	c-27.42,0-49.65-23.45-49.65-52.39c0-21.35,12.1-39.72,29.46-47.89c6.17-2.9,13-4.51,20.19-4.51c10.8,0,20.79,3.63,28.93,9.82
	c-11.38,8.63-19.16,22.2-20.51,37.74c6.34,3.11,13.41,4.84,20.85,4.84c7.19,0,14.03-1.61,20.19-4.51
	C148.65,151.17,148.71,152.67,148.71,154.2z"/>
<path class="st2" d="M206.59,154.2c0,28.94-22.24,52.39-49.65,52.39c-10.8,0-20.79-3.63-28.94-9.81
	c-12.55-9.51-20.72-25.04-20.72-42.58c0-1.63,0.07-3.25,0.21-4.84c6.34,3.11,13.41,4.84,20.85,4.84c7.19,0,14.03-1.61,20.19-4.51
	c-1.27-15.68-9.07-29.39-20.54-38.07c8.15-6.19,18.15-9.82,28.94-9.82c7.44,0,14.5,1.73,20.84,4.83
	C194.78,114.94,206.59,133.12,206.59,154.2z"/>
</svg>
